<svg width="20" height="20" viewBox="0 0 20 20" fill="none" xmlns="http://www.w3.org/2000/svg">
<path d="M13.3333 19.25H11H3C2.61666 19.25 2.04526 18.9887 1.53351 18.4845C1.02334 17.9819 0.75 17.4126 0.75 17V3C0.75 2.58739 1.02334 2.01811 1.53351 1.51546C2.04526 1.01127 2.61666 0.75 3 0.75H17C17.3833 0.75 17.9547 1.01127 18.4665 1.51546C18.9767 2.01811 19.25 2.58739 19.25 3V17C19.25 17.4126 18.9767 17.9819 18.4665 18.4845C17.9547 18.9887 17.3833 19.25 17 19.25H13.3333Z" stroke="black" stroke-width="1.5"/>
<path d="M12 8.21429C12 7.62255 12.4477 7.14286 13 7.14286H14C14.5523 7.14286 15 6.66317 15 6.07143C15 5.47969 14.5523 5 14 5H13C11.3431 5 10 6.43908 10 8.21429V10.3571H9C8.44771 10.3571 8 10.8368 8 11.4286C8 12.0203 8.44771 12.5 9 12.5H10V18.9286C10 19.5203 10.4477 20 11 20C11.5523 20 12 19.5203 12 18.9286V12.5H14C14.5523 12.5 15 12.0203 15 11.4286C15 10.8368 14.5523 10.3571 14 10.3571H12V8.21429Z" fill="black"/>
</svg>
