<svg width="20" height="20" viewBox="0 0 20 20" fill="none" xmlns="http://www.w3.org/2000/svg">
<path d="M0.75 5C0.75 2.65279 2.65279 0.75 5 0.75H15C17.3472 0.75 19.25 2.6528 19.25 5V15C19.25 17.3472 17.3472 19.25 15 19.25H5C2.6528 19.25 0.75 17.3472 0.75 15V5ZM10 13.75C12.0711 13.75 13.75 12.0711 13.75 10C13.75 7.92889 12.0711 6.25 10 6.25C7.92889 6.25 6.25 7.92889 6.25 10C6.25 12.0711 7.92889 13.75 10 13.75Z" stroke="black" stroke-width="1.5"/>
<path d="M16.5 4C16.5 4.27614 16.2762 4.5 16 4.5C15.7238 4.5 15.5 4.27614 15.5 4C15.5 3.72386 15.7238 3.5 16 3.5C16.2762 3.5 16.5 3.72386 16.5 4Z" stroke="black"/>
<path d="M14.25 10C14.25 12.3472 12.3472 14.25 10 14.25C7.6528 14.25 5.75 12.3472 5.75 10C5.75 7.65279 7.65279 5.75 10 5.75C12.3472 5.75 14.25 7.6528 14.25 10ZM10 13.75C12.0711 13.75 13.75 12.0711 13.75 10C13.75 7.92889 12.0711 6.25 10 6.25C7.92889 6.25 6.25 7.92889 6.25 10C6.25 12.0711 7.92889 13.75 10 13.75Z" fill="black" stroke="black" stroke-width="1.5"/>
</svg>
