<svg width="20" height="20" viewBox="0 0 20 20" fill="none" xmlns="http://www.w3.org/2000/svg">
<path d="M0.75 3C0.75 1.75736 1.75736 0.75 3 0.75H17C18.2427 0.75 19.25 1.75736 19.25 3V17C19.25 18.2427 18.2427 19.25 17 19.25H3C1.75736 19.25 0.75 18.2427 0.75 17V3Z" stroke="black" stroke-width="1.5"/>
<path d="M5 6C5.55228 6 6 5.55228 6 5C6 4.44772 5.55228 4 5 4C4.44772 4 4 4.44772 4 5C4 5.55228 4.44772 6 5 6Z" fill="black"/>
<path d="M5 8C4.44772 8 4 8.44772 4 9V15C4 15.5523 4.44772 16 5 16C5.55228 16 6 15.5523 6 15V9C6 8.44772 5.55228 8 5 8Z" fill="black"/>
<path d="M12 10C10.8954 10 10 10.8954 10 12V15C10 15.5523 9.55229 16 9 16C8.44771 16 8 15.5523 8 15V9C8 8.44772 8.44772 8 9 8C9.40537 8 9.7544 8.2412 9.91141 8.58791C10.5193 8.215 11.2346 8 12 8C14.2091 8 16 9.79086 16 12V15C16 15.5523 15.5523 16 15 16C14.4477 16 14 15.5523 14 15V12C14 10.8954 13.1046 10 12 10Z" fill="black"/>
</svg>
