<svg width="24" height="24" viewBox="0 0 24 24" fill="none" xmlns="http://www.w3.org/2000/svg">
<path opacity="0.25" d="M10.8591 2.1389C12.4669 2.2899 13.6733 3.5372 13.7908 5.1477C13.9008 6.6568 14 8.882 14 12C14 15.118 13.9008 17.3432 13.7908 18.8523C13.6733 20.4628 12.4669 21.7101 10.8592 21.8611C10.0221 21.9398 9.0411 22 8 22C6.9589 22 5.9779 21.9398 5.1408 21.8611C3.5331 21.7101 2.3267 20.4628 2.2092 18.8523C2.0992 17.3432 2 15.118 2 12C2 8.882 2.0992 6.6568 2.2092 5.1477C2.3267 3.5372 3.5331 2.2899 5.1409 2.1389C5.9779 2.0602 6.9589 2 8 2C9.0411 2 10.0221 2.0602 10.8591 2.1389Z" fill="#12131A"/>
<path fill-rule="evenodd" clip-rule="evenodd" d="M16.7929 9.2071C16.4024 8.8166 16.4024 8.1834 16.7929 7.7929C17.1834 7.4024 17.8166 7.4024 18.2071 7.7929L21.7071 11.2929C22.0976 11.6834 22.0976 12.3166 21.7071 12.7071L18.2071 16.2071C17.8166 16.5976 17.1834 16.5976 16.7929 16.2071C16.4024 15.8166 16.4024 15.1834 16.7929 14.7929L18.5858 13L9 13C8.4477 13 8 12.5523 8 12C8 11.4477 8.4477 11 9 11L18.5858 11L16.7929 9.2071Z" fill="#12131A"/>
</svg>
